<?xml version="1.0" encoding="utf-8"?>
<!-- Generator: Adobe Illustrator 19.0.0, SVG Export Plug-In . SVG Version: 6.00 Build 0)  -->
<svg version="1.1" id="Layer_1" xmlns="http://www.w3.org/2000/svg" xmlns:xlink="http://www.w3.org/1999/xlink" x="0px" y="0px"
	 viewBox="0 0 960 560" style="enable-background:new 0 0 960 560;" xml:space="preserve">
<style type="text/css">
	.st0{fill:#FFFFFF;stroke:#000000;stroke-miterlimit:10;}
</style>
<polyline id="XMLID_2_" class="st0" points="157.7,214.1 209.7,214.1 209.7,352.8 266.9,352.8 266.9,217.1 309.7,217.1 309.7,298.8 
	372,298.8 372,215.1 414.8,215.1 414.8,331.4 455.6,331.4 455.6,184.5 517.9,184.5 517.9,246.7 563.8,246.7 563.8,187.5 
	600.5,187.5 600.5,361 647.5,361 647.5,143.7 563.8,143.7 563.8,88.6 406.7,88.6 406.7,161 329.1,161 329.1,125.3 241.3,125.3 
	241.3,177.3 153.6,177.3 "/>
</svg>
