<?xml version="1.0" encoding="utf-8"?>
<!-- Generator: Adobe Illustrator 19.0.0, SVG Export Plug-In . SVG Version: 6.00 Build 0)  -->
<svg version="1.1" id="Layer_1" xmlns="http://www.w3.org/2000/svg" xmlns:xlink="http://www.w3.org/1999/xlink" x="0px" y="0px"
	 viewBox="0 0 500 500" style="enable-background:new 0 0 500 500;" xml:space="preserve">
<rect id="XMLID_1_" x="0" y="0" style="fill:#1E1D1C;stroke:#000000;stroke-width:1.467;stroke-miterlimit:10;" width="500" height="506.2"/>
<g id="XMLID_14_">
	<g id="XMLID_41_">
		<g id="XMLID_56_" style="enable-background:new    ;">
			<g id="XMLID_204_">
				<rect id="XMLID_205_" x="176.2" y="278.5" style="fill:#005650;" width="5.3" height="9.7"/>
			</g>
			<g id="XMLID_200_" style="enable-background:new    ;">
				<defs>
					<path id="XMLID_203_" style="enable-background:new    ;" d="M176.2,288.2h5.3c1.6,0.8,3.5,1.4,5.7,1.8c2.2,0.4,4.5,0.6,7,0.6
						l-5.3,0c-2.4,0-4.8-0.2-7-0.6C179.7,289.6,177.8,289,176.2,288.2z"/>
				</defs>
				<clipPath id="XMLID_4_">
					<use xlink:href="#XMLID_203_"  style="overflow:visible;"/>
				</clipPath>
				<g id="XMLID_201_" style="clip-path:url(#XMLID_4_);enable-background:new    ;">
					<path id="XMLID_202_" style="fill:#005852;" d="M176.2,288.2h5.3c1.6,0.8,3.5,1.4,5.7,1.8c2.2,0.4,4.5,0.6,7,0.6h-5.3
						c-2.4,0-4.8-0.2-7-0.6C179.7,289.6,177.8,289,176.2,288.2"/>
				</g>
			</g>
			<g id="XMLID_194_" style="enable-background:new    ;">
				<defs>
					<path id="XMLID_199_" style="enable-background:new    ;" d="M195.5,280.3h5.3c-0.3,0.5-0.8,1-1.4,1.4
						c-0.6,0.4-1.4,0.7-2.4,0.9c-0.9,0.2-2,0.3-3.3,0.3l-5.3,0c1.3,0,2.4-0.1,3.3-0.3c0.9-0.2,1.7-0.5,2.4-0.9
						C194.7,281.3,195.2,280.8,195.5,280.3z"/>
				</defs>
				<clipPath id="XMLID_5_">
					<use xlink:href="#XMLID_199_"  style="overflow:visible;"/>
				</clipPath>
				<g id="XMLID_195_" style="clip-path:url(#XMLID_5_);enable-background:new    ;">
					<path id="XMLID_198_" style="fill:#005852;" d="M195.5,280.3h5.3c-0.1,0.2-0.3,0.4-0.5,0.6H195
						C195.2,280.7,195.4,280.5,195.5,280.3"/>
					<path id="XMLID_197_" style="fill:#005B55;" d="M195,280.9h5.3c-0.3,0.3-0.6,0.5-0.9,0.8c-0.5,0.3-1.1,0.6-1.8,0.8h-5.3
						c0.7-0.2,1.3-0.5,1.8-0.8C194.5,281.4,194.8,281.2,195,280.9"/>
					<path id="XMLID_196_" style="fill:#005F58;" d="M192.3,282.4h5.3c-0.2,0.1-0.4,0.1-0.6,0.2c-0.9,0.2-2,0.3-3.3,0.3h-5.3
						c1.3,0,2.4-0.1,3.3-0.3C191.9,282.5,192.1,282.5,192.3,282.4"/>
				</g>
			</g>
			<g id="XMLID_188_" style="enable-background:new    ;">
				<defs>
					<path id="XMLID_193_" style="enable-background:new    ;" d="M193.4,245.6l5.3,0c-2.4,0-4.6,0.2-6.7,0.7
						c-2.1,0.5-4,1.3-5.6,2.3c-1.6,1.1-2.9,2.4-3.8,4c-0.9,1.6-1.4,3.6-1.4,5.8c0,2.9,0.9,5.4,2.6,7.4c1.7,2,4.3,3.8,7.8,5.2
						c1.4,0.5,2.6,1.1,3.8,1.6c1.2,0.5,2.2,1.1,3.1,1.6c0.9,0.6,1.5,1.2,2,1.9c0.5,0.7,0.7,1.4,0.7,2.3c0,0.6-0.2,1.2-0.5,1.7h-5.3
						c0.3-0.5,0.5-1.1,0.5-1.7c0-0.9-0.2-1.6-0.7-2.3c-0.5-0.7-1.2-1.3-2-1.9c-0.9-0.6-1.9-1.1-3.1-1.6c-1.2-0.5-2.4-1.1-3.8-1.6
						c-3.5-1.4-6.1-3.1-7.8-5.2c-1.7-2.1-2.6-4.5-2.6-7.4c0-2.3,0.5-4.2,1.4-5.8c0.9-1.6,2.2-3,3.8-4c1.6-1.1,3.5-1.8,5.6-2.3
						C188.9,245.8,191.1,245.6,193.4,245.6z"/>
				</defs>
				<clipPath id="XMLID_6_">
					<use xlink:href="#XMLID_193_"  style="overflow:visible;"/>
				</clipPath>
				<g id="XMLID_189_" style="clip-path:url(#XMLID_6_);enable-background:new    ;">
					<path id="XMLID_192_" style="fill:#005F58;" d="M193.4,245.6h5.3c-2.4,0-4.6,0.2-6.7,0.7c-0.4,0.1-0.8,0.2-1.1,0.3h-5.3
						c0.4-0.1,0.8-0.2,1.1-0.3C188.9,245.8,191.1,245.6,193.4,245.6"/>
					<path id="XMLID_191_" style="fill:#005B55;" d="M185.6,246.6h5.3c-1.6,0.5-3.1,1.2-4.4,2c-0.8,0.5-1.5,1.1-2.2,1.8H179
						c0.6-0.7,1.4-1.3,2.2-1.8C182.5,247.8,184,247.1,185.6,246.6"/>
					<path id="XMLID_190_" style="fill:#005852;" d="M179,250.5h5.3c-0.6,0.7-1.2,1.4-1.6,2.2c-0.9,1.6-1.4,3.6-1.4,5.8
						c0,2.9,0.9,5.4,2.6,7.4c1.7,2,4.3,3.8,7.8,5.2c1.4,0.5,2.6,1.1,3.8,1.6c1.2,0.5,2.2,1.1,3.1,1.6c0.9,0.6,1.5,1.2,2,1.9
						c0.5,0.7,0.7,1.4,0.7,2.3c0,0.6-0.2,1.2-0.5,1.7h-5.3c0.3-0.5,0.5-1.1,0.5-1.7c0-0.9-0.2-1.6-0.7-2.3c-0.5-0.7-1.2-1.3-2-1.9
						c-0.9-0.6-1.9-1.1-3.1-1.6c-1.2-0.5-2.4-1.1-3.8-1.6c-3.5-1.4-6.1-3.1-7.8-5.2c-1.7-2.1-2.6-4.5-2.6-7.4c0-2.3,0.5-4.2,1.4-5.8
						C177.8,251.9,178.4,251.1,179,250.5"/>
				</g>
			</g>
			<g id="XMLID_184_" style="enable-background:new    ;">
				<defs>
					<path id="XMLID_187_" style="enable-background:new    ;" d="M194,253.3l5.3,0c0.8,0,1.7,0.1,2.6,0.2c0.9,0.1,1.8,0.3,2.8,0.6
						c0.9,0.3,1.8,0.6,2.7,1c0.9,0.4,1.7,0.8,2.4,1.3h-5.3c-0.7-0.5-1.6-1-2.4-1.3c-0.9-0.4-1.8-0.7-2.7-1c-0.9-0.3-1.9-0.4-2.8-0.6
						C195.7,253.4,194.8,253.3,194,253.3z"/>
				</defs>
				<clipPath id="XMLID_7_">
					<use xlink:href="#XMLID_187_"  style="overflow:visible;"/>
				</clipPath>
				<g id="XMLID_185_" style="clip-path:url(#XMLID_7_);enable-background:new    ;">
					<path id="XMLID_186_" style="fill:#005852;" d="M194,253.3h5.3c0.8,0,1.7,0.1,2.6,0.2c0.9,0.1,1.8,0.3,2.8,0.6
						c0.9,0.3,1.8,0.6,2.7,1c0.9,0.4,1.7,0.8,2.4,1.3h-5.3c-0.7-0.5-1.6-1-2.4-1.3c-0.9-0.4-1.8-0.7-2.7-1c-0.9-0.3-1.9-0.4-2.8-0.6
						C195.7,253.4,194.8,253.3,194,253.3"/>
				</g>
			</g>
			<g id="XMLID_182_">
				<polygon id="XMLID_183_" style="fill:#00554F;" points="209.1,246.3 214.4,246.3 229.5,289.9 224.2,289.9 				"/>
			</g>
			<g id="XMLID_178_" style="enable-background:new    ;">
				<defs>
					<path id="XMLID_181_" style="enable-background:new    ;" d="M231.2,276.5h5.3c-0.5,1.6-0.8,3.1-1,4.5h-5.3
						C230.4,279.6,230.7,278.1,231.2,276.5z"/>
				</defs>
				<clipPath id="XMLID_8_">
					<use xlink:href="#XMLID_181_"  style="overflow:visible;"/>
				</clipPath>
				<g id="XMLID_179_" style="clip-path:url(#XMLID_8_);enable-background:new    ;">
					<path id="XMLID_180_" style="fill:#005852;" d="M231.2,276.5h5.3c-0.5,1.6-0.8,3.1-1,4.5h-5.3
						C230.4,279.6,230.7,278.1,231.2,276.5"/>
				</g>
			</g>
			<g id="XMLID_176_">
				<polygon id="XMLID_177_" style="fill:#00554F;" points="224.2,289.9 229.5,289.9 240.9,289.9 235.6,289.9 				"/>
			</g>
			<g id="XMLID_174_">
				<polygon id="XMLID_175_" style="fill:#005953;" points="240.4,246.3 245.7,246.3 236.5,276.5 231.2,276.5 				"/>
			</g>
			<g id="XMLID_172_">
				<rect id="XMLID_173_" x="273.8" y="265.1" style="fill:#005650;" width="5.3" height="7.8"/>
			</g>
			<g id="XMLID_166_" style="enable-background:new    ;">
				<defs>
					<path id="XMLID_171_" style="enable-background:new    ;" d="M278.2,245.6l5.3,0c-7.5,0-13.5,2.2-18,6.5
						c-4.5,4.3-6.8,9.9-6.8,16.7c0,6.8,2.1,12.1,6.2,16c4.1,3.9,9.8,5.8,16.9,5.8l-5.3,0c-7.2,0-12.8-1.9-16.9-5.8
						c-4.1-3.9-6.2-9.2-6.2-16c0-6.8,2.3-12.4,6.8-16.7C264.7,247.7,270.7,245.6,278.2,245.6z"/>
				</defs>
				<clipPath id="XMLID_9_">
					<use xlink:href="#XMLID_171_"  style="overflow:visible;"/>
				</clipPath>
				<g id="XMLID_167_" style="clip-path:url(#XMLID_9_);enable-background:new    ;">
					<path id="XMLID_170_" style="fill:#005F58;" d="M278.2,245.6h5.3c-3.2,0-6.1,0.4-8.8,1.2l-5.3,0
						C272.1,246,275,245.6,278.2,245.6"/>
					<path id="XMLID_169_" style="fill:#005B55;" d="M269.4,246.8l5.3,0c-3.6,1.1-6.6,2.8-9.2,5.3c-0.3,0.3-0.6,0.6-0.9,0.9h-5.3
						c0.3-0.3,0.6-0.6,0.9-0.9C262.8,249.6,265.8,247.8,269.4,246.8"/>
					<path id="XMLID_168_" style="fill:#005852;" d="M259.3,253h5.3c-3.9,4.2-5.9,9.5-5.9,15.8c0,6.8,2.1,12.1,6.2,16
						c4.1,3.9,9.8,5.8,16.9,5.8h-5.3c-7.2,0-12.8-1.9-16.9-5.8c-4.1-3.9-6.2-9.2-6.2-16C253.4,262.4,255.4,257.1,259.3,253"/>
				</g>
			</g>
			<g id="XMLID_161_" style="enable-background:new    ;">
				<defs>
					<path id="XMLID_165_" style="enable-background:new    ;" d="M282.7,281.4h5.3c-1.4,0.7-3.3,1-5.7,1H277
						C279.4,282.4,281.3,282.1,282.7,281.4z"/>
				</defs>
				<clipPath id="XMLID_10_">
					<use xlink:href="#XMLID_165_"  style="overflow:visible;"/>
				</clipPath>
				<g id="XMLID_162_" style="clip-path:url(#XMLID_10_);enable-background:new    ;">
					<path id="XMLID_164_" style="fill:#005B55;" d="M282.7,281.4h5.3c-0.4,0.2-0.8,0.3-1.2,0.5h-5.3
						C281.9,281.7,282.4,281.6,282.7,281.4"/>
					<path id="XMLID_163_" style="fill:#005F58;" d="M281.5,281.9h5.3c-1.2,0.4-2.7,0.6-4.5,0.6H277
						C278.8,282.4,280.3,282.2,281.5,281.9"/>
				</g>
			</g>
			<g id="XMLID_159_">
				<rect id="XMLID_160_" x="282.7" y="272.9" style="fill:#005650;" width="5.3" height="8.5"/>
			</g>
			<g id="XMLID_157_">
				<polygon id="XMLID_158_" style="fill:#00554F;" points="273.8,272.9 279.1,272.9 288,272.9 282.7,272.9 				"/>
			</g>
			<g id="XMLID_153_" style="enable-background:new    ;">
				<defs>
					<path id="XMLID_156_" style="enable-background:new    ;" d="M278.1,253.8h5.3c5,0,9.2,1,12.6,2.9h-5.3
						C287.2,254.8,283,253.8,278.1,253.8z"/>
				</defs>
				<clipPath id="XMLID_11_">
					<use xlink:href="#XMLID_156_"  style="overflow:visible;"/>
				</clipPath>
				<g id="XMLID_154_" style="clip-path:url(#XMLID_11_);enable-background:new    ;">
					<path id="XMLID_155_" style="fill:#005852;" d="M278.1,253.8h5.3c5,0,9.2,1,12.6,2.9h-5.3C287.2,254.8,283,253.8,278.1,253.8"
						/>
				</g>
			</g>
			<g id="XMLID_151_">
				<polygon id="XMLID_152_" style="fill:#00554F;" points="126.6,188 131.9,188 348.2,188 342.9,188 				"/>
			</g>
			<g id="XMLID_145_" style="enable-background:new    ;">
				<defs>
					<path id="XMLID_150_" style="enable-background:new    ;" d="M358.3,335.9h5.3c0,10.1-6.9,18.2-15.4,18.2l-5.3,0
						C351.4,354.1,358.3,346,358.3,335.9z"/>
				</defs>
				<clipPath id="XMLID_17_">
					<use xlink:href="#XMLID_150_"  style="overflow:visible;"/>
				</clipPath>
				<g id="XMLID_146_" style="clip-path:url(#XMLID_17_);enable-background:new    ;">
					<path id="XMLID_149_" style="fill:#005852;" d="M358.3,335.9h5.3c0,5.4-2,10.2-5.1,13.5h-5.3
						C356.4,346.1,358.3,341.3,358.3,335.9"/>
					<path id="XMLID_148_" style="fill:#005B55;" d="M353.3,349.4h5.3c-1.8,2-4.1,3.4-6.6,4.2h-5.3
						C349.2,352.9,351.4,351.4,353.3,349.4"/>
					<path id="XMLID_147_" style="fill:#005F58;" d="M346.7,353.6h5.3c-1.2,0.4-2.5,0.5-3.8,0.5h-5.3
						C344.2,354.1,345.5,354,346.7,353.6"/>
				</g>
			</g>
			<g id="XMLID_143_">
				<rect id="XMLID_144_" x="358.3" y="206.3" style="fill:#005650;" width="5.3" height="129.7"/>
			</g>
			<g id="XMLID_62_">
				<path id="XMLID_138_" style="fill:#009F93;" d="M342.9,188c8.5,0,15.4,8.2,15.4,18.2v129.7c0,10.1-6.9,18.2-15.4,18.2H126.6
					c-8.5,0-15.4-8.2-15.4-18.2V206.3c0-10.1,6.9-18.2,15.4-18.2H342.9z M235.6,289.9l15.3-43.6h-10.5l-9.2,30.2
					c-0.5,1.6-0.8,3.1-1,4.5H230c-0.1-1.3-0.4-2.7-0.9-4.3l-9.3-30.3h-10.8l15.1,43.6H235.6 M292.7,287v-21.9h-18.9v7.8h8.9v8.5
					c-1.4,0.7-3.3,1-5.7,1c-4,0-7.2-1.2-9.5-3.7c-2.4-2.4-3.5-5.9-3.5-10.4c0-4.4,1.3-7.9,3.9-10.6c2.6-2.6,6-4,10.2-4
					c5,0,9.2,1,12.6,2.9v-9.2c-3.6-1.3-7.8-1.9-12.5-1.9c-7.5,0-13.5,2.2-18,6.5c-4.5,4.3-6.8,9.9-6.8,16.7c0,6.8,2.1,12.1,6.2,16
					c4.1,3.9,9.8,5.8,16.9,5.8C283,290.6,288.4,289.4,292.7,287 M205.1,283.8c0.9-1.7,1.4-3.7,1.4-6.1c0-1.8-0.3-3.3-0.8-4.6
					c-0.5-1.3-1.3-2.5-2.3-3.5c-1-1-2.2-2-3.6-2.8c-1.4-0.8-3-1.6-4.8-2.3c-1.3-0.5-2.5-1-3.5-1.5c-1-0.5-1.9-1-2.6-1.5
					c-0.7-0.5-1.3-1.1-1.7-1.6c-0.4-0.6-0.6-1.2-0.6-2c0-0.7,0.2-1.3,0.5-1.8c0.4-0.5,0.8-1,1.5-1.4c0.6-0.4,1.4-0.7,2.4-0.9
					c0.9-0.2,2-0.3,3.1-0.3c0.8,0,1.7,0.1,2.6,0.2c0.9,0.1,1.8,0.3,2.8,0.6c0.9,0.3,1.8,0.6,2.7,1c0.9,0.4,1.7,0.8,2.4,1.3v-9.1
					c-1.5-0.6-3.2-1-5-1.3c-1.8-0.3-3.8-0.4-6.2-0.4c-2.4,0-4.6,0.2-6.7,0.7c-2.1,0.5-4,1.3-5.6,2.3c-1.6,1.1-2.9,2.4-3.8,4
					c-0.9,1.6-1.4,3.6-1.4,5.8c0,2.9,0.9,5.4,2.6,7.4c1.7,2,4.3,3.8,7.8,5.2c1.4,0.5,2.6,1.1,3.8,1.6c1.2,0.5,2.2,1.1,3.1,1.6
					c0.9,0.6,1.5,1.2,2,1.9c0.5,0.7,0.7,1.4,0.7,2.3c0,0.6-0.2,1.2-0.5,1.7c-0.3,0.5-0.8,1-1.4,1.4c-0.6,0.4-1.4,0.7-2.4,0.9
					c-0.9,0.2-2,0.3-3.3,0.3c-2.2,0-4.3-0.4-6.4-1.1c-2.1-0.7-4.1-1.8-5.9-3.3v9.7c1.6,0.8,3.5,1.4,5.7,1.8c2.2,0.4,4.5,0.6,7,0.6
					c2.4,0,4.6-0.2,6.8-0.7c2.1-0.5,4-1.2,5.6-2.2C202.9,286.7,204.2,285.4,205.1,283.8"/>
			</g>
			<g id="XMLID_58_" style="enable-background:new    ;">
				<defs>
					<path id="XMLID_61_" style="enable-background:new    ;" d="M342.9,188l5.3,0c8.5,0,15.4,8.2,15.4,18.2h-5.3
						C358.3,196.2,351.4,188,342.9,188z"/>
				</defs>
				<clipPath id="XMLID_18_">
					<use xlink:href="#XMLID_61_"  style="overflow:visible;"/>
				</clipPath>
				<g id="XMLID_59_" style="clip-path:url(#XMLID_18_);enable-background:new    ;">
					<path id="XMLID_60_" style="fill:#005852;" d="M342.9,188h5.3c8.5,0,15.4,8.2,15.4,18.2h-5.3C358.3,196.2,351.4,188,342.9,188"
						/>
				</g>
			</g>
		</g>
	</g>
</g>
<g id="XMLID_2_">
	<g id="XMLID_19_">
		<g id="XMLID_130_" style="enable-background:new    ;">
			<g id="XMLID_216_" style="enable-background:new    ;">
				<defs>
					<path id="XMLID_219_" style="enable-background:new    ;" d="M176.1,278.5h5.3c1.8,1.5,3.8,2.6,5.9,3.3
						c2.1,0.7,4.2,1.1,6.4,1.1h-5.3c-2.2,0-4.3-0.4-6.4-1.1C179.9,281.1,177.9,280,176.1,278.5z"/>
				</defs>
				<clipPath id="XMLID_20_">
					<use xlink:href="#XMLID_219_"  style="overflow:visible;"/>
				</clipPath>
				<g id="XMLID_217_" style="clip-path:url(#XMLID_20_);enable-background:new    ;">
					<path id="XMLID_218_" style="fill:#858585;" d="M176.1,278.5h5.3c1.8,1.5,3.8,2.6,5.9,3.3c2.1,0.7,4.2,1.1,6.4,1.1h-5.3
						c-2.2,0-4.3-0.4-6.4-1.1C179.9,281.1,177.9,280,176.1,278.5"/>
				</g>
			</g>
			<g id="XMLID_214_">
				<rect id="XMLID_215_" x="204.5" y="247.3" style="fill:#878787;" width="5.3" height="9.1"/>
			</g>
			<g id="XMLID_210_" style="enable-background:new    ;">
				<defs>
					<path id="XMLID_213_" style="enable-background:new    ;" d="M193.4,245.6l5.3,0c2.3,0,4.4,0.1,6.2,0.4c1.8,0.3,3.4,0.7,5,1.3
						h-5.3c-1.5-0.6-3.2-1-5-1.3C197.8,245.7,195.7,245.6,193.4,245.6z"/>
				</defs>
				<clipPath id="XMLID_21_">
					<use xlink:href="#XMLID_213_"  style="overflow:visible;"/>
				</clipPath>
				<g id="XMLID_211_" style="clip-path:url(#XMLID_21_);enable-background:new    ;">
					<path id="XMLID_212_" style="fill:#858585;" d="M193.4,245.6h5.3c2.3,0,4.4,0.1,6.2,0.4c1.8,0.3,3.4,0.7,5,1.3h-5.3
						c-1.5-0.6-3.2-1-5-1.3C197.8,245.7,195.7,245.6,193.4,245.6"/>
				</g>
			</g>
			<g id="XMLID_133_" style="enable-background:new    ;">
				<defs>
					<path id="XMLID_209_" style="enable-background:new    ;" d="M193.9,253.3h5.3c-1.1,0-2.2,0.1-3.1,0.3
						c-0.9,0.2-1.7,0.5-2.4,0.9c-0.6,0.4-1.1,0.8-1.5,1.4c-0.4,0.5-0.5,1.1-0.5,1.8c0,0.7,0.2,1.4,0.6,2c0.4,0.6,0.9,1.1,1.7,1.6
						c0.7,0.5,1.6,1,2.6,1.5c1,0.5,2.2,1,3.5,1.5c1.8,0.7,3.4,1.5,4.8,2.3c1.4,0.8,2.6,1.7,3.6,2.8c1,1,1.8,2.2,2.3,3.5
						c0.5,1.3,0.8,2.9,0.8,4.6c0,2.4-0.5,4.5-1.4,6.1c-0.9,1.6-2.2,3-3.8,4c-1.6,1-3.5,1.8-5.6,2.2c-2.1,0.4-4.4,0.7-6.8,0.7h-5.3
						c2.4,0,4.6-0.2,6.8-0.7c2.1-0.5,4-1.2,5.6-2.2c1.6-1,2.9-2.4,3.8-4c0.9-1.7,1.4-3.7,1.4-6.1c0-1.8-0.3-3.3-0.8-4.6
						c-0.5-1.3-1.3-2.5-2.3-3.5c-1-1-2.2-2-3.6-2.8c-1.4-0.8-3-1.6-4.8-2.3c-1.3-0.5-2.5-1-3.5-1.5c-1-0.5-1.9-1-2.6-1.5
						c-0.7-0.5-1.3-1.1-1.7-1.6c-0.4-0.6-0.6-1.2-0.6-2c0-0.7,0.2-1.3,0.5-1.8c0.4-0.5,0.8-1,1.5-1.4c0.6-0.4,1.4-0.7,2.4-0.9
						C191.8,253.4,192.8,253.3,193.9,253.3z"/>
				</defs>
				<clipPath id="XMLID_22_">
					<use xlink:href="#XMLID_209_"  style="overflow:visible;"/>
				</clipPath>
				<g id="XMLID_134_" style="clip-path:url(#XMLID_22_);enable-background:new    ;">
					<path id="XMLID_208_" style="fill:#8F8F8F;" d="M193.9,253.3h5.3c-1.1,0-2.2,0.1-3.1,0.3c-0.9,0.2-1.7,0.5-2.4,0.9
						c-0.5,0.3-1,0.7-1.3,1.1h-5.3c0.3-0.4,0.8-0.8,1.3-1.1c0.6-0.4,1.4-0.7,2.4-0.9C191.8,253.4,192.8,253.3,193.9,253.3"/>
					<path id="XMLID_207_" style="fill:#8A8A8A;" d="M187.2,255.6h5.3c-0.1,0.1-0.1,0.2-0.2,0.3c-0.1,0.2-0.3,0.4-0.3,0.7h-5.3
						c0.1-0.2,0.2-0.5,0.3-0.7C187.1,255.8,187.1,255.7,187.2,255.6"/>
					<path id="XMLID_137_" style="fill:#858585;" d="M186.7,256.6h5.3c-0.1,0.4-0.2,0.7-0.2,1.1c0,0.7,0.2,1.4,0.6,2
						c0.4,0.6,0.9,1.1,1.7,1.6c0.7,0.5,1.6,1,2.6,1.5c1,0.5,2.2,1,3.5,1.5c1.8,0.7,3.4,1.5,4.8,2.3c1.4,0.8,2.6,1.7,3.6,2.8
						c1,1,1.8,2.2,2.3,3.5c0.5,1.3,0.8,2.9,0.8,4.6c0,1.7-0.2,3.3-0.7,4.6h-5.3c0.5-1.3,0.7-2.9,0.7-4.6c0-1.8-0.3-3.3-0.8-4.6
						c-0.5-1.3-1.3-2.5-2.3-3.5c-1-1-2.2-2-3.6-2.8c-1.4-0.8-3-1.6-4.8-2.3c-1.3-0.5-2.5-1-3.5-1.5c-1-0.5-1.9-1-2.6-1.5
						c-0.7-0.5-1.3-1.1-1.7-1.6c-0.4-0.6-0.6-1.2-0.6-2C186.5,257.3,186.5,256.9,186.7,256.6"/>
					<path id="XMLID_136_" style="fill:#8A8A8A;" d="M205.7,282.2h5.3c-0.2,0.5-0.4,1-0.7,1.5c-0.3,0.5-0.6,1-1,1.4h-5.3
						c0.4-0.4,0.7-0.9,1-1.4C205.3,283.3,205.5,282.8,205.7,282.2"/>
					<path id="XMLID_135_" style="fill:#8F8F8F;" d="M204.1,285.2h5.3c-0.8,1-1.7,1.9-2.9,2.6c-1.6,1-3.5,1.8-5.6,2.2
						c-2.1,0.4-4.4,0.7-6.8,0.7h-5.3c2.4,0,4.6-0.2,6.8-0.7c2.1-0.5,4-1.2,5.6-2.2C202.3,287.1,203.3,286.2,204.1,285.2"/>
				</g>
			</g>
			<g id="XMLID_131_">
				<path id="XMLID_132_" style="fill:#F0F0F0;" d="M193.4,245.6c2.3,0,4.4,0.1,6.2,0.4c1.8,0.3,3.4,0.7,5,1.3v9.1
					c-0.7-0.5-1.6-1-2.4-1.3c-0.9-0.4-1.8-0.7-2.7-1c-0.9-0.3-1.9-0.4-2.8-0.6c-0.9-0.1-1.8-0.2-2.6-0.2c-1.1,0-2.2,0.1-3.1,0.3
					c-0.9,0.2-1.7,0.5-2.4,0.9c-0.6,0.4-1.1,0.8-1.5,1.4c-0.4,0.5-0.5,1.1-0.5,1.8c0,0.7,0.2,1.4,0.6,2c0.4,0.6,0.9,1.1,1.7,1.6
					c0.7,0.5,1.6,1,2.6,1.5c1,0.5,2.2,1,3.5,1.5c1.8,0.7,3.4,1.5,4.8,2.3c1.4,0.8,2.6,1.7,3.6,2.8c1,1,1.8,2.2,2.3,3.5
					c0.5,1.3,0.8,2.9,0.8,4.6c0,2.4-0.5,4.5-1.4,6.1c-0.9,1.6-2.2,3-3.8,4c-1.6,1-3.5,1.8-5.6,2.2c-2.1,0.4-4.4,0.7-6.8,0.7
					c-2.4,0-4.8-0.2-7-0.6c-2.2-0.4-4.1-1-5.7-1.8v-9.7c1.8,1.5,3.8,2.6,5.9,3.3c2.1,0.7,4.2,1.1,6.4,1.1c1.3,0,2.4-0.1,3.3-0.3
					c0.9-0.2,1.7-0.5,2.4-0.9c0.6-0.4,1.1-0.9,1.4-1.4c0.3-0.5,0.5-1.1,0.5-1.7c0-0.9-0.2-1.6-0.7-2.3c-0.5-0.7-1.2-1.3-2-1.9
					c-0.9-0.6-1.9-1.1-3.1-1.6c-1.2-0.5-2.4-1.1-3.8-1.6c-3.5-1.4-6.1-3.2-7.8-5.2c-1.7-2.1-2.6-4.5-2.6-7.4c0-2.3,0.5-4.2,1.4-5.8
					c0.9-1.6,2.2-3,3.8-4c1.6-1.1,3.5-1.8,5.6-2.3C188.8,245.8,191,245.6,193.4,245.6z"/>
			</g>
		</g>
		<g id="XMLID_115_" style="enable-background:new    ;">
			<g id="XMLID_128_">
				<polygon id="XMLID_129_" style="fill:#808080;" points="209,246.3 214.3,246.3 225.1,246.3 219.8,246.3 				"/>
			</g>
			<g id="XMLID_126_">
				<polygon id="XMLID_127_" style="fill:#828282;" points="219.8,246.3 225.1,246.3 234.4,276.6 229.1,276.6 				"/>
			</g>
			<g id="XMLID_122_" style="enable-background:new    ;">
				<defs>
					<path id="XMLID_125_" style="enable-background:new    ;" d="M229.1,276.6h5.3c0.5,1.6,0.8,3.1,0.9,4.3H230
						C229.9,279.7,229.6,278.3,229.1,276.6z"/>
				</defs>
				<clipPath id="XMLID_23_">
					<use xlink:href="#XMLID_125_"  style="overflow:visible;"/>
				</clipPath>
				<g id="XMLID_123_" style="clip-path:url(#XMLID_23_);enable-background:new    ;">
					<path id="XMLID_124_" style="fill:#858585;" d="M229.1,276.6h5.3c0.5,1.6,0.8,3.1,0.9,4.3H230
						C229.9,279.7,229.6,278.3,229.1,276.6"/>
				</g>
			</g>
			<g id="XMLID_120_">
				<polygon id="XMLID_121_" style="fill:#8F8F8F;" points="250.8,246.3 256.1,246.3 240.8,289.9 235.5,289.9 				"/>
			</g>
			<g id="XMLID_118_">
				<polygon id="XMLID_119_" style="fill:#808080;" points="240.3,246.3 245.6,246.3 256.1,246.3 250.8,246.3 				"/>
			</g>
			<g id="XMLID_116_">
				<path id="XMLID_117_" style="fill:#F0F0F0;" d="M250.8,246.3l-15.3,43.6h-11.4L209,246.3h10.8l9.3,30.3c0.5,1.6,0.8,3.1,0.9,4.3
					h0.2c0.1-1.4,0.5-2.8,1-4.5l9.2-30.2H250.8z"/>
			</g>
		</g>
		<g id="XMLID_42_" style="enable-background:new    ;">
			<g id="XMLID_109_" style="enable-background:new    ;">
				<defs>
					<path id="XMLID_114_" style="enable-background:new    ;" d="M278,253.8h5.3c-4.2,0-7.5,1.3-10.2,4c-2.6,2.6-3.9,6.2-3.9,10.6
						c0,4.5,1.2,7.9,3.5,10.4c2.3,2.5,5.5,3.7,9.5,3.7H277c-4,0-7.2-1.2-9.5-3.7c-2.4-2.4-3.5-5.9-3.5-10.4c0-4.4,1.3-7.9,3.9-10.6
						C270.5,255.1,273.8,253.8,278,253.8z"/>
				</defs>
				<clipPath id="XMLID_25_">
					<use xlink:href="#XMLID_114_"  style="overflow:visible;"/>
				</clipPath>
				<g id="XMLID_110_" style="clip-path:url(#XMLID_25_);enable-background:new    ;">
					<path id="XMLID_113_" style="fill:#8F8F8F;" d="M278,253.8h5.3c-4.2,0-7.5,1.3-10.2,4c-0.3,0.3-0.7,0.7-1,1.1h-5.3
						c0.3-0.4,0.6-0.7,1-1.1C270.5,255.1,273.8,253.8,278,253.8"/>
					<path id="XMLID_112_" style="fill:#8A8A8A;" d="M266.9,258.8h5.3c-0.9,1.1-1.5,2.3-2,3.7h-5.3
						C265.3,261.2,266,259.9,266.9,258.8"/>
					<path id="XMLID_111_" style="fill:#858585;" d="M264.8,262.5h5.3c-0.6,1.7-0.9,3.7-0.9,5.8c0,4.5,1.2,7.9,3.5,10.4
						c2.3,2.5,5.5,3.7,9.5,3.7H277c-4,0-7.2-1.2-9.5-3.7c-2.4-2.4-3.5-5.9-3.5-10.4C263.9,266.2,264.2,264.3,264.8,262.5"/>
				</g>
			</g>
			<g id="XMLID_107_">
				<rect id="XMLID_108_" x="290.6" y="247.5" style="fill:#878787;" width="5.3" height="9.2"/>
			</g>
			<g id="XMLID_103_" style="enable-background:new    ;">
				<defs>
					<path id="XMLID_106_" style="enable-background:new    ;" d="M278.1,245.6l5.3,0c4.7,0,8.9,0.6,12.5,1.9h-5.3
						C287,246.2,282.8,245.6,278.1,245.6z"/>
				</defs>
				<clipPath id="XMLID_26_">
					<use xlink:href="#XMLID_106_"  style="overflow:visible;"/>
				</clipPath>
				<g id="XMLID_104_" style="clip-path:url(#XMLID_26_);enable-background:new    ;">
					<path id="XMLID_105_" style="fill:#858585;" d="M278.1,245.6h5.3c4.7,0,8.9,0.6,12.5,1.9h-5.3
						C287,246.2,282.8,245.6,278.1,245.6"/>
				</g>
			</g>
			<g id="XMLID_99_" style="enable-background:new    ;">
				<defs>
					<path id="XMLID_102_" style="enable-background:new    ;" d="M292.7,287h5.3c-4.3,2.4-9.7,3.7-16.2,3.7h-5.3
						C282.9,290.6,288.3,289.4,292.7,287z"/>
				</defs>
				<clipPath id="XMLID_27_">
					<use xlink:href="#XMLID_102_"  style="overflow:visible;"/>
				</clipPath>
				<g id="XMLID_100_" style="clip-path:url(#XMLID_27_);enable-background:new    ;">
					<path id="XMLID_101_" style="fill:#8F8F8F;" d="M292.7,287h5.3c-4.3,2.4-9.7,3.7-16.2,3.7h-5.3
						C282.9,290.6,288.3,289.4,292.7,287"/>
				</g>
			</g>
			<g id="XMLID_97_">
				<rect id="XMLID_98_" x="292.7" y="265.1" style="fill:#878787;" width="5.3" height="21.9"/>
			</g>
			<g id="XMLID_46_">
				<polygon id="XMLID_96_" style="fill:#808080;" points="273.8,265.1 279.1,265.1 298,265.1 292.7,265.1 				"/>
			</g>
			<g id="XMLID_44_">
				<path id="XMLID_45_" style="fill:#F0F0F0;" d="M278.1,245.6c4.7,0,8.9,0.6,12.5,1.9v9.2c-3.4-1.9-7.6-2.9-12.6-2.9
					c-4.2,0-7.5,1.3-10.2,4c-2.6,2.6-3.9,6.2-3.9,10.6c0,4.5,1.2,7.9,3.5,10.4c2.3,2.5,5.5,3.7,9.5,3.7c2.4,0,4.3-0.3,5.7-1v-8.5
					h-8.9v-7.8h18.9V287c-4.3,2.4-9.7,3.7-16.2,3.7c-7.2,0-12.8-1.9-16.9-5.8s-6.2-9.2-6.2-16c0-6.8,2.3-12.4,6.8-16.7
					C264.6,247.7,270.6,245.6,278.1,245.6z"/>
			</g>
		</g>
	</g>
</g>
</svg>
